<svg width="269" height="60" viewBox="0 0 269 60" fill="none" xmlns="http://www.w3.org/2000/svg">
<g clip-path="url(#clip0)">
<path d="M19.6406 11.6698C20.2269 11.6698 20.6898 11.8375 21.0292 12.1727C21.3686 12.5079 21.5384 12.9346 21.5384 13.4527V42.527C21.5384 43.0756 21.3686 43.5175 21.0292 43.8527C20.6898 44.1879 20.2269 44.3555 19.6406 44.3555C19.0543 44.3555 18.5914 44.1879 18.252 43.8527C17.9434 43.5175 17.7891 43.0756 17.7891 42.527V40.0584C17.1102 41.4603 16.1073 42.5422 14.7804 43.3041C13.4844 44.066 11.9569 44.447 10.198 44.447C8.22307 44.447 6.47958 43.9594 4.96754 42.9841C3.45549 42.0089 2.28288 40.6527 1.44971 38.9155C0.616536 37.1479 0.199951 35.106 0.199951 32.7898C0.199951 30.5041 0.616536 28.4927 1.44971 26.7555C2.28288 25.0184 3.45549 23.6775 4.96754 22.7327C6.47958 21.7879 8.22307 21.3155 10.198 21.3155C11.9569 21.3155 13.4844 21.6965 14.7804 22.4584C16.1073 23.2203 17.1102 24.3022 17.7891 25.7041V13.4527C17.7891 12.9041 17.9434 12.4775 18.252 12.1727C18.5914 11.8375 19.0543 11.6698 19.6406 11.6698ZM10.9386 41.3841C13.1295 41.3841 14.8113 40.6527 15.9839 39.1898C17.1874 37.6965 17.7891 35.5936 17.7891 32.8813C17.7891 30.1689 17.1874 28.0813 15.9839 26.6184C14.8113 25.1555 13.1295 24.4241 10.9386 24.4241C8.74766 24.4241 7.03503 25.1555 5.8007 26.6184C4.59724 28.0813 3.9955 30.1384 3.9955 32.7898C3.9955 35.5022 4.59724 37.6203 5.8007 39.1441C7.03503 40.6375 8.74766 41.3841 10.9386 41.3841ZM37.694 21.3155C43.3411 21.3155 46.1646 24.2413 46.1646 30.0927V42.527C46.1646 43.0756 45.9949 43.5175 45.6554 43.8527C45.3469 44.1879 44.9149 44.3555 44.3594 44.3555C43.804 44.3555 43.3565 44.1879 43.0171 43.8527C42.6776 43.5175 42.5079 43.0756 42.5079 42.527V40.3327C41.9216 41.6432 41.0267 42.6641 39.8233 43.3955C38.6198 44.0965 37.2312 44.447 35.6574 44.447C34.2071 44.447 32.8647 44.1575 31.6304 43.5784C30.427 42.9994 29.4704 42.1917 28.7606 41.1555C28.0509 40.1194 27.696 38.9765 27.696 37.727C27.696 36.0508 28.128 34.7555 28.992 33.8413C29.8561 32.8965 31.2756 32.226 33.2505 31.8298C35.2254 31.4032 37.9718 31.1898 41.4896 31.1898H42.5079V29.6813C42.5079 27.8527 42.1222 26.5117 41.3507 25.6584C40.6101 24.8051 39.3912 24.3784 37.694 24.3784C35.5957 24.3784 33.4665 24.9422 31.3064 26.0698C30.4732 26.5879 29.8869 26.847 29.5475 26.847C29.1772 26.847 28.8686 26.7098 28.6218 26.4355C28.3749 26.1613 28.2515 25.8108 28.2515 25.3841C28.2515 24.9574 28.3749 24.5917 28.6218 24.287C28.8995 23.9517 29.3315 23.6165 29.9178 23.2813C30.9978 22.6717 32.2167 22.1994 33.5745 21.8641C34.9631 21.4984 36.3363 21.3155 37.694 21.3155ZM36.1666 41.5213C38.0181 41.5213 39.5301 40.9117 40.7027 39.6927C41.9062 38.4432 42.5079 36.8432 42.5079 34.8927V33.567H41.6747C38.9592 33.567 36.8917 33.6889 35.4723 33.9327C34.0528 34.146 33.0345 34.527 32.4173 35.0755C31.831 35.5936 31.5378 36.3708 31.5378 37.407C31.5378 38.5955 31.9699 39.586 32.8339 40.3784C33.7288 41.1403 34.8397 41.5213 36.1666 41.5213ZM69.2746 22.5498C69.6141 21.8184 70.1541 21.4527 70.8947 21.4527C71.3576 21.4527 71.7741 21.6051 72.1444 21.9098C72.5147 22.2146 72.6999 22.5955 72.6999 23.0527C72.6999 23.327 72.6382 23.5708 72.5147 23.7841L63.4887 42.9841C63.3036 43.3803 63.0259 43.7003 62.6556 43.9441C62.2853 44.1575 61.8841 44.2641 61.4521 44.2641C61.0509 44.2641 60.6652 44.1575 60.2949 43.9441C59.9246 43.7003 59.6315 43.3803 59.4155 42.9841L50.4357 23.7841C50.3123 23.5708 50.2506 23.3422 50.2506 23.0984C50.2506 22.6413 50.4512 22.2451 50.8523 21.9098C51.2843 21.5746 51.7472 21.407 52.2409 21.407C52.5495 21.407 52.8427 21.4984 53.1204 21.6813C53.429 21.8641 53.6604 22.1232 53.8147 22.4584L61.5447 39.6013L69.2746 22.5498ZM78.702 44.3555C78.1465 44.3555 77.6836 44.2032 77.3133 43.8984C76.9739 43.5632 76.8042 43.106 76.8042 42.527V23.2355C76.8042 22.6565 76.9739 22.2146 77.3133 21.9098C77.6836 21.5746 78.1465 21.407 78.702 21.407C79.2574 21.407 79.7048 21.5746 80.0443 21.9098C80.3837 22.2146 80.5534 22.6565 80.5534 23.2355V42.527C80.5534 43.1365 80.3837 43.5936 80.0443 43.8984C79.7048 44.2032 79.2574 44.3555 78.702 44.3555ZM78.702 16.607C77.9614 16.607 77.3596 16.3936 76.8968 15.967C76.4339 15.5403 76.2024 14.9765 76.2024 14.2755C76.2024 13.6051 76.4339 13.0565 76.8968 12.6298C77.3596 12.2032 77.9614 11.9898 78.702 11.9898C79.4426 11.9898 80.0443 12.2032 80.5072 12.6298C80.97 13.0565 81.2015 13.6051 81.2015 14.2755C81.2015 14.9765 80.97 15.5403 80.5072 15.967C80.0443 16.3936 79.4426 16.607 78.702 16.607ZM105.661 11.6698C106.247 11.6698 106.71 11.8375 107.049 12.1727C107.389 12.5079 107.558 12.9346 107.558 13.4527V42.527C107.558 43.0756 107.389 43.5175 107.049 43.8527C106.71 44.1879 106.247 44.3555 105.661 44.3555C105.074 44.3555 104.612 44.1879 104.272 43.8527C103.964 43.5175 103.809 43.0756 103.809 42.527V40.0584C103.13 41.4603 102.127 42.5422 100.801 43.3041C99.5045 44.066 97.977 44.447 96.2181 44.447C94.2432 44.447 92.4997 43.9594 90.9877 42.9841C89.4756 42.0089 88.303 40.6527 87.4698 38.9155C86.6367 37.1479 86.2201 35.106 86.2201 32.7898C86.2201 30.5041 86.6367 28.4927 87.4698 26.7555C88.303 25.0184 89.4756 23.6775 90.9877 22.7327C92.4997 21.7879 94.2432 21.3155 96.2181 21.3155C97.977 21.3155 99.5045 21.6965 100.801 22.4584C102.127 23.2203 103.13 24.3022 103.809 25.7041V13.4527C103.809 12.9041 103.964 12.4775 104.272 12.1727C104.612 11.8375 105.074 11.6698 105.661 11.6698ZM96.9587 41.3841C99.1497 41.3841 100.831 40.6527 102.004 39.1898C103.207 37.6965 103.809 35.5936 103.809 32.8813C103.809 30.1689 103.207 28.0813 102.004 26.6184C100.831 25.1555 99.1497 24.4241 96.9587 24.4241C94.7678 24.4241 93.0552 25.1555 91.8208 26.6184C90.6174 28.0813 90.0156 30.1384 90.0156 32.7898C90.0156 35.5022 90.6174 37.6203 91.8208 39.1441C93.0552 40.6375 94.7678 41.3841 96.9587 41.3841Z" fill="white"/>
<path d="M121.262 26.2527C120.367 27.7765 119.672 29.3461 119.179 30.9613C118.716 32.5461 118.484 34.0699 118.484 35.5327C118.484 36.9956 118.808 38.2451 119.456 39.2813C120.135 40.287 121.092 40.7899 122.326 40.7899C124.054 40.7899 125.674 39.8603 127.186 38.0013C128.698 36.1118 129.856 33.8413 130.658 31.1899C131.491 28.508 131.908 26.0394 131.908 23.7842C131.908 21.4984 131.815 19.6242 131.63 18.1613C132.371 18.1003 132.833 18.0699 133.019 18.0699C135.642 18.0699 136.953 19.3956 136.953 22.047C136.953 22.6261 136.583 24.988 135.842 29.1327C135.101 33.247 134.731 36.5537 134.731 39.0527C134.731 41.5213 135.209 43.7156 136.166 45.6356C134.222 45.2394 132.803 44.4013 131.908 43.1213C131.044 41.8108 130.612 39.9365 130.612 37.4984C130.612 37.0718 130.673 36.2489 130.797 35.0299C129.964 37.9251 128.498 40.2565 126.399 42.0242C124.301 43.7918 122.234 44.6756 120.197 44.6756C118.191 44.6756 116.571 43.9289 115.337 42.4356C114.103 40.9118 113.485 38.8242 113.485 36.1727C113.485 33.4908 113.979 30.8851 114.967 28.3556C115.985 25.7956 117.497 23.5861 119.503 21.727C121.539 19.868 123.807 18.9384 126.307 18.9384C127.387 18.9384 128.575 19.1518 129.871 19.5784C128.05 20.0356 126.384 20.8737 124.872 22.0927C123.36 23.3118 122.156 24.6984 121.262 26.2527ZM147.773 34.8927C147.773 36.6299 148.113 38.047 148.792 39.1442C149.47 40.2413 150.52 40.7899 151.939 40.7899C153.389 40.7899 154.701 40.1651 155.874 38.9156C157.077 37.6356 158.034 35.9289 158.743 33.7956C159.484 31.6318 160.117 29.3461 160.641 26.9384C161.197 24.5004 161.597 21.9099 161.845 19.167C162.307 14.0775 162.539 10.0394 162.539 7.05273C162.539 4.06607 162.415 1.84131 162.169 0.378448C165.347 1.38416 166.936 4.53845 166.936 9.8413C166.936 12.0051 166.412 16.3632 165.363 22.9156C164.344 29.468 163.834 34.2527 163.834 37.2699C163.834 40.287 163.974 42.847 164.252 44.9499C162.492 44.3708 161.288 43.3346 160.641 41.8413C159.993 40.348 159.669 38.4432 159.669 36.127C158.712 38.748 157.293 40.8203 155.411 42.3442C153.528 43.868 151.569 44.6299 149.532 44.6299C147.526 44.6299 145.891 43.868 144.626 42.3442C143.391 40.7899 142.774 38.5194 142.774 35.5327C142.774 30.5651 144.086 26.4813 146.709 23.2813C149.362 20.0813 152.649 18.4813 156.568 18.4813C157.679 18.4813 158.867 18.6489 160.132 18.9842C158.034 19.3194 156.151 20.0813 154.485 21.2699C152.819 22.428 151.523 23.7994 150.597 25.3842C148.714 28.6146 147.773 31.7842 147.773 34.8927ZM184.35 20.127C182.499 20.127 180.925 21.1784 179.628 23.2813C178.363 25.3842 177.515 27.8527 177.082 30.687H178.379C180.014 30.687 181.435 30.4584 182.637 30.0013C183.841 29.5442 184.766 28.9499 185.414 28.2184C186.648 26.8165 187.266 25.2318 187.266 23.4642C187.266 22.4584 187.02 21.6508 186.526 21.0413C186.063 20.4318 185.337 20.127 184.35 20.127ZM190.877 38.6413C189.458 40.927 187.899 42.527 186.202 43.4413C184.504 44.3556 182.529 44.8127 180.277 44.8127C178.055 44.8127 176.112 43.8375 174.445 41.887C172.778 39.9365 171.946 37.1937 171.946 33.6584C171.946 29.6356 173.04 26.0394 175.231 22.8699C176.311 21.3461 177.716 20.1118 179.443 19.167C181.203 18.2223 183.132 17.7499 185.229 17.7499C189.858 17.7499 192.172 19.9594 192.172 24.3784C192.172 27.0299 191.123 29.1175 189.025 30.6413C186.957 32.1346 184.551 32.8813 181.804 32.8813C179.983 32.8813 178.349 32.7137 176.898 32.3784C176.867 32.6832 176.851 33.1556 176.851 33.7956C176.851 39.1899 178.471 41.887 181.711 41.887C184.766 41.887 187.251 40.3937 189.164 37.407C190.306 37.5594 190.877 37.9708 190.877 38.6413ZM215.038 29.1327C215.038 26.1461 214.652 24.0127 213.881 22.7327C213.14 21.4223 212.06 20.767 210.641 20.767C209.252 20.767 207.847 21.4527 206.428 22.8242C205.009 24.1651 203.882 25.8413 203.05 27.8527C202.248 29.8337 201.846 31.9061 201.846 34.0699C201.846 36.2032 202.262 38.0623 203.096 39.647C203.929 41.2013 205.194 41.9784 206.891 41.9784C209.299 41.9784 211.258 40.5765 212.77 37.7727C214.283 34.9689 215.038 32.0889 215.038 29.1327ZM201.615 27.3499C202.788 24.0584 204.361 21.6661 206.337 20.1727C208.342 18.6489 210.363 17.887 212.399 17.887C214.467 17.887 216.179 18.7861 217.537 20.5842C218.895 22.3518 219.573 24.7594 219.573 27.807C219.573 31.1594 218.926 34.268 217.63 37.1327C216.179 40.3023 214.082 42.5118 211.335 43.7613C209.853 44.4623 208.219 44.8127 206.428 44.8127C203.929 44.8127 201.738 43.7918 199.856 41.7499C197.973 39.6775 197.033 36.7365 197.033 32.927C197.033 29.087 197.865 25.7651 199.532 22.9613C201.198 20.1575 203.466 18.207 206.337 17.1099C206.954 17.1099 207.262 17.4146 207.262 18.0242C204.207 20.0051 202.325 23.1137 201.615 27.3499ZM244.872 20.9042C244.872 21.9708 244.409 23.4489 243.484 25.3384C242.558 27.228 241.431 29.3003 240.104 31.5556C238.778 33.8108 237.45 36.2184 236.124 38.7784C234.797 41.308 233.67 44.0813 232.744 47.0984C231.819 50.1461 231.356 53.0565 231.356 55.8299C231.356 57.2013 231.463 58.5118 231.68 59.7613C229.705 59.3042 228.363 58.6184 227.653 57.7042C226.975 56.8203 226.635 55.7689 226.635 54.5499C226.635 52.8127 227.715 49.5061 229.876 44.6299C229.413 42.7403 228.841 39.7842 228.162 35.7613C227.484 31.708 226.79 28.188 226.079 25.2013C225.401 22.2146 224.614 19.9899 223.718 18.527C224.892 17.7346 225.895 17.3384 226.727 17.3384C228.333 17.3384 229.427 18.1613 230.014 19.807C230.6 21.4223 231.11 24.5308 231.541 29.1327C232.003 33.7346 232.466 37.1175 232.929 39.2813C238.979 28.0356 242.002 20.5232 242.002 16.7442C243.916 18.0242 244.872 19.4108 244.872 20.9042ZM260.517 20.127C258.665 20.127 257.09 21.1784 255.795 23.2813C254.53 25.3842 253.681 27.8527 253.249 30.687H254.544C256.181 30.687 257.6 30.4584 258.803 30.0013C260.007 29.5442 260.933 28.9499 261.581 28.2184C262.815 26.8165 263.432 25.2318 263.432 23.4642C263.432 22.4584 263.185 21.6508 262.691 21.0413C262.228 20.4318 261.504 20.127 260.517 20.127ZM267.042 38.6413C265.623 40.927 264.065 42.527 262.368 43.4413C260.671 44.3556 258.696 44.8127 256.442 44.8127C254.221 44.8127 252.277 43.8375 250.61 41.887C248.945 39.9365 248.111 37.1937 248.111 33.6584C248.111 29.6356 249.207 26.0394 251.398 22.8699C252.478 21.3461 253.882 20.1118 255.61 19.167C257.368 18.2223 259.297 17.7499 261.396 17.7499C266.025 17.7499 268.339 19.9594 268.339 24.3784C268.339 27.0299 267.289 29.1175 265.19 30.6413C263.124 32.1346 260.716 32.8813 257.971 32.8813C256.15 32.8813 254.514 32.7137 253.064 32.3784C253.034 32.6832 253.018 33.1556 253.018 33.7956C253.018 39.1899 254.638 41.887 257.878 41.887C260.933 41.887 263.416 40.3937 265.33 37.407C266.471 37.5594 267.042 37.9708 267.042 38.6413Z" fill="#B30505"/>
<path d="M21.0293 12.1727L21.1429 12.0605L21.0293 12.1727ZM21.0293 43.8527L21.1429 43.9649L21.0293 43.8527ZM18.252 43.8527L18.1331 43.9595L18.1357 43.9622L18.1384 43.9649L18.252 43.8527ZM17.7892 40.0584H17.9499L17.6442 39.99L17.7892 40.0584ZM14.7805 43.3041L14.6997 43.1668L14.6983 43.1678L14.7805 43.3041ZM4.96761 42.9841L4.87973 43.117L4.96761 42.9841ZM1.44978 38.9155L1.30407 38.9825L1.30453 38.9835L1.44978 38.9155ZM1.44978 26.7555L1.30453 26.6876L1.44978 26.7555ZM4.96761 22.7327L4.88169 22.5986L4.96761 22.7327ZM14.7805 22.4584L14.6983 22.5948L14.6997 22.5955L14.7805 22.4584ZM17.7892 25.7041L17.6442 25.7725L17.9499 25.7041H17.7892ZM18.252 12.1727L18.1384 12.0605L18.252 12.1727ZM15.984 39.1898L15.8582 39.0909L15.858 39.0913L15.984 39.1898ZM15.984 26.6184L15.8579 26.717L15.8592 26.7186L15.984 26.6184ZM5.80078 26.6184L5.6773 26.5168L5.67605 26.5182L5.80078 26.6184ZM5.80078 39.1441L5.67405 39.2417L5.67515 39.2432L5.67627 39.2444L5.80078 39.1441ZM19.6407 11.8286C20.1943 11.8286 20.6127 11.9858 20.9156 12.2849L21.1429 12.0605C20.767 11.6891 20.2596 11.5111 19.6407 11.5111V11.8286ZM20.9156 12.2849C21.222 12.5875 21.3777 12.9724 21.3777 13.4527H21.6992C21.6992 12.8968 21.5154 12.4284 21.1429 12.0605L20.9156 12.2849ZM21.3777 13.4527V42.527H21.6992V13.4527H21.3777ZM21.3777 42.527C21.3777 43.0406 21.2202 43.4397 20.9156 43.7405L21.1429 43.9649C21.5172 43.5952 21.6992 43.1105 21.6992 42.527H21.3777ZM20.9156 43.7405C20.6127 44.0395 20.1943 44.1968 19.6407 44.1968V44.5143C20.2596 44.5143 20.767 44.3363 21.1429 43.9649L20.9156 43.7405ZM19.6407 44.1968C19.087 44.1968 18.6686 44.0395 18.3657 43.7405L18.1384 43.9649C18.5143 44.3363 19.0217 44.5143 19.6407 44.5143V44.1968ZM18.371 43.7459C18.0947 43.4459 17.9499 43.0448 17.9499 42.527H17.6285C17.6285 43.1063 17.7922 43.589 18.1331 43.9595L18.371 43.7459ZM17.9499 42.527V40.0584H17.6285V42.527H17.9499ZM17.6442 39.99C16.9788 41.3638 15.998 42.4214 14.6997 43.1668L14.8613 43.4414C16.2169 42.663 17.2418 41.5568 17.9341 40.1268L17.6442 39.99ZM14.6983 43.1678C13.431 43.9127 11.9329 44.2882 10.1981 44.2882V44.6057C11.9811 44.6057 13.5379 44.2194 14.8627 43.4405L14.6983 43.1678ZM10.1981 44.2882C8.25132 44.2882 6.53896 43.8081 5.05549 42.8513L4.87973 43.117C6.42035 44.1106 8.19497 44.6057 10.1981 44.6057V44.2882ZM5.05549 42.8513C3.57019 41.8932 2.41652 40.5605 1.59503 38.8476L1.30453 38.9835C2.14938 40.7449 3.34094 42.1246 4.87973 43.117L5.05549 42.8513ZM1.59549 38.8486C0.773891 37.1055 0.360745 35.0871 0.360745 32.7898H0.0393066C0.0393066 35.1249 0.459331 37.1903 1.30408 38.9825L1.59549 38.8486ZM0.360745 32.7898C0.360745 30.5232 0.773795 28.5357 1.59503 26.8235L1.30453 26.6876C0.459429 28.4497 0.0393066 30.4851 0.0393066 32.7898H0.360745ZM1.59503 26.8235C2.41636 25.1111 3.56946 23.7941 5.05353 22.8668L4.88169 22.5986C3.34166 23.5608 2.14954 24.9257 1.30453 26.6876L1.59503 26.8235ZM5.05353 22.8668C6.53724 21.9398 8.25031 21.4743 10.1981 21.4743V21.1568C8.196 21.1568 6.42207 21.636 4.88169 22.5986L5.05353 22.8668ZM10.1981 21.4743C11.9329 21.4743 13.431 21.8498 14.6983 22.5948L14.8627 22.3221C13.5379 21.5432 11.9811 21.1568 10.1981 21.1568V21.4743ZM14.6997 22.5955C15.998 23.3411 16.9788 24.3987 17.6442 25.7725L17.9341 25.6357C17.2418 24.2057 16.2169 23.0995 14.8613 22.3211L14.6997 22.5955ZM17.9499 25.7041V13.4527H17.6285V25.7041H17.9499ZM17.9499 13.4527C17.9499 12.9342 18.0949 12.5524 18.3657 12.2849L18.1384 12.0605C17.7921 12.4025 17.6285 12.8741 17.6285 13.4527H17.9499ZM18.3657 12.2849C18.6686 11.9858 19.087 11.8286 19.6407 11.8286V11.5111C19.0217 11.5111 18.5143 11.6891 18.1384 12.0605L18.3657 12.2849ZM10.9387 41.5429C13.1699 41.5429 14.9018 40.7955 16.11 39.2884L15.858 39.0913C14.7209 40.5098 13.0893 41.2254 10.9387 41.2254V41.5429ZM16.1096 39.2887C17.3437 37.7576 17.9499 35.6148 17.9499 32.8813H17.6285C17.6285 35.5725 17.0312 37.6354 15.8582 39.0909L16.1096 39.2887ZM17.9499 32.8813C17.9499 30.1481 17.3438 28.0195 16.1087 26.5182L15.8592 26.7186C17.0311 28.143 17.6285 30.1897 17.6285 32.8813H17.9499ZM16.11 26.5198C14.9018 25.0127 13.1699 24.2654 10.9387 24.2654V24.5828C13.0893 24.5828 14.7209 25.2984 15.858 26.717L16.11 26.5198ZM10.9387 24.2654C8.70733 24.2654 6.94655 25.0125 5.67731 26.5168L5.92424 26.72C7.12366 25.2986 8.78814 24.5828 10.9387 24.5828V24.2654ZM5.67605 26.5182C4.44143 28.019 3.83486 30.1165 3.83486 32.7898H4.1563C4.1563 30.1603 4.75319 28.1435 5.92551 26.7186L5.67605 26.5182ZM3.83486 32.7898C3.83486 35.5236 4.44119 37.6808 5.67405 39.2417L5.92751 39.0465C4.75343 37.5598 4.1563 35.4808 4.1563 32.7898H3.83486ZM5.67627 39.2444C6.94512 40.7795 8.70614 41.5429 10.9387 41.5429V41.2254C8.78933 41.2254 7.12509 40.4954 5.92529 39.0438L5.67627 39.2444ZM45.6555 43.8527L45.5419 43.7405L45.5392 43.7432L45.5366 43.7459L45.6555 43.8527ZM43.0172 43.8527L43.1308 43.7405L43.0172 43.8527ZM42.508 40.3327H42.6687L42.3609 40.2686L42.508 40.3327ZM39.8233 43.3955L39.905 43.5322L39.9063 43.5316L39.9076 43.5308L39.8233 43.3955ZM31.6305 43.5784L31.5601 43.7211L31.5615 43.7217L31.6305 43.5784ZM28.7607 41.1555L28.6276 41.2444L28.7607 41.1555ZM28.9921 33.8413L29.1096 33.9495L29.1106 33.9486L29.1114 33.9476L28.9921 33.8413ZM33.2505 31.8298L33.2825 31.9854L33.2837 31.9851L33.2849 31.9849L33.2505 31.8298ZM42.508 31.1898V31.3486H42.6687V31.1898H42.508ZM41.3508 25.6584L41.2288 25.7617L41.2298 25.7628L41.2309 25.7641L41.3508 25.6584ZM31.3065 26.0698L31.2314 25.9295L31.226 25.9324L31.2208 25.9355L31.3065 26.0698ZM28.6218 24.287L28.4974 24.1865L28.4963 24.1878L28.6218 24.287ZM29.9179 23.2813L29.8382 23.1435L29.8373 23.144L29.9179 23.2813ZM33.5746 21.8641L33.6136 22.0181L33.6147 22.0178L33.616 22.0175L33.5746 21.8641ZM40.7028 39.6927L40.5863 39.5833L40.7028 39.6927ZM42.508 33.567H42.6687V33.4082H42.508V33.567ZM35.4723 33.9327L35.4964 34.0897L35.4982 34.0894L35.4998 34.089L35.4723 33.9327ZM32.4174 35.0755L32.5246 35.1938L32.5249 35.1935L32.4174 35.0755ZM32.834 40.3784L32.7247 40.4948L32.7268 40.4967L32.729 40.4986L32.834 40.3784ZM37.6941 21.4743C40.4908 21.4743 42.5594 22.1984 43.9307 23.6194C45.3034 25.0417 46.004 27.1895 46.004 30.0927H46.3254C46.3254 27.1444 45.6142 24.9036 44.1634 23.4003C42.7111 21.8955 40.5445 21.1568 37.6941 21.1568V21.4743ZM46.004 30.0927V42.527H46.3254V30.0927H46.004ZM46.004 42.527C46.004 43.0406 45.8465 43.4397 45.5419 43.7405L45.7692 43.9649C46.1435 43.5952 46.3254 43.1105 46.3254 42.527H46.004ZM45.5366 43.7459C45.2648 44.0413 44.8801 44.1968 44.3595 44.1968V44.5143C44.9498 44.5143 45.4291 44.3346 45.7745 43.9595L45.5366 43.7459ZM44.3595 44.1968C43.8394 44.1968 43.4353 44.0413 43.1308 43.7405L42.9035 43.9649C43.2778 44.3346 43.7687 44.5143 44.3595 44.5143V44.1968ZM43.1308 43.7405C42.8262 43.4397 42.6687 43.0406 42.6687 42.527H42.3473C42.3473 43.1105 42.5292 43.5952 42.9035 43.9649L43.1308 43.7405ZM42.6687 42.527V40.3327H42.3473V42.527H42.6687ZM42.3609 40.2686C41.7875 41.5505 40.9141 42.5462 39.7391 43.2603L39.9076 43.5308C41.1395 42.7821 42.0559 41.7359 42.6551 40.3968L42.3609 40.2686ZM39.7417 43.2589C38.566 43.9436 37.2062 44.2882 35.6575 44.2882V44.6057C37.2563 44.6057 38.6737 44.2494 39.905 43.5322L39.7417 43.2589ZM35.6575 44.2882C34.2295 44.2882 32.9109 44.0033 31.6994 43.4351L31.5615 43.7217C32.8187 44.3116 34.1848 44.6057 35.6575 44.6057V44.2882ZM31.7009 43.4357C30.5212 42.8681 29.5868 42.0784 28.8938 41.0667L28.6276 41.2444C29.3541 42.3051 30.3328 43.1306 31.5601 43.7211L31.7009 43.4357ZM28.8938 41.0667C28.202 40.0567 27.8568 38.9448 27.8568 37.727H27.5354C27.5354 39.0082 27.8999 40.1821 28.6276 41.2444L28.8938 41.0667ZM27.8568 37.727C27.8568 36.077 28.2817 34.8257 29.1096 33.9495L28.8746 33.733C27.9744 34.6854 27.5354 36.0246 27.5354 37.727H27.8568ZM29.1114 33.9476C29.9426 33.0387 31.3235 32.3784 33.2825 31.9854L33.2186 31.6743C31.2277 32.0736 29.7697 32.7543 28.8729 33.7349L29.1114 33.9476ZM33.2849 31.9849C35.2431 31.5617 37.9762 31.3486 41.4897 31.3486V31.0311C37.9675 31.0311 35.2078 31.2446 33.2162 31.6748L33.2849 31.9849ZM41.4897 31.3486H42.508V31.0311H41.4897V31.3486ZM42.6687 31.1898V29.6813H42.3473V31.1898H42.6687ZM42.6687 29.6813C42.6687 27.8359 42.2803 26.4482 41.4707 25.5527L41.2309 25.7641C41.9643 26.5752 42.3473 27.8695 42.3473 29.6813H42.6687ZM41.4728 25.5551C40.6891 24.6522 39.4148 24.2197 37.6941 24.2197V24.5371C39.3679 24.5371 40.5313 24.9579 41.2288 25.7617L41.4728 25.5551ZM37.6941 24.2197C35.5656 24.2197 33.4108 24.7917 31.2314 25.9295L31.3815 26.2101C33.5223 25.0927 35.626 24.5371 37.6941 24.5371V24.2197ZM31.2208 25.9355C30.8076 26.1924 30.4598 26.3825 30.1763 26.5078C29.8886 26.6349 29.6824 26.6882 29.5476 26.6882V27.0057C29.7522 27.0057 30.0088 26.9295 30.3075 26.7976C30.6102 26.6638 30.9722 26.4654 31.3921 26.2041L31.2208 25.9355ZM29.5476 26.6882C29.2234 26.6882 28.9584 26.5706 28.7419 26.3302L28.5018 26.5409C28.779 26.849 29.1311 27.0057 29.5476 27.0057V26.6882ZM28.7419 26.3302C28.5254 26.0895 28.4122 25.7786 28.4122 25.3841H28.0908C28.0908 25.843 28.2245 26.233 28.5018 26.5409L28.7419 26.3302ZM28.4122 25.3841C28.4122 24.99 28.5254 24.6601 28.7473 24.3862L28.4963 24.1878C28.2245 24.5233 28.0908 24.9249 28.0908 25.3841H28.4122ZM28.7462 24.3875C29.0069 24.0728 29.4208 23.7489 29.9984 23.4186L29.8373 23.144C29.2424 23.4841 28.7922 23.8306 28.4974 24.1865L28.7462 24.3875ZM29.9976 23.419C31.0633 22.8176 32.2682 22.3503 33.6136 22.0181L33.5355 21.7101C32.1654 22.0484 30.9325 22.5259 29.8382 23.1435L29.9976 23.419ZM33.616 22.0175C34.9919 21.6551 36.3512 21.4743 37.6941 21.4743V21.1568C36.3216 21.1568 34.9344 21.3417 33.5331 21.7108L33.616 22.0175ZM36.1666 41.68C38.0578 41.68 39.6136 41.0555 40.8193 39.8021L40.5863 39.5833C39.4468 40.7679 37.9784 41.3625 36.1666 41.3625V41.68ZM40.8193 39.8021C42.0549 38.5192 42.6687 36.8781 42.6687 34.8927H42.3473C42.3473 36.8082 41.7576 38.3671 40.5863 39.5833L40.8193 39.8021ZM42.6687 34.8927V33.567H42.3473V34.8927H42.6687ZM42.508 33.4082H41.6748V33.7257H42.508V33.4082ZM41.6748 33.4082C38.9566 33.4082 36.8781 33.5302 35.4449 33.7763L35.4998 34.089C36.9055 33.8476 38.962 33.7257 41.6748 33.7257V33.4082ZM35.4482 33.7757C34.0177 33.9908 32.9619 34.3781 32.3099 34.9576L32.5249 35.1935C33.1072 34.6759 34.0881 34.3013 35.4964 34.0897L35.4482 33.7757ZM32.3102 34.9573C31.6795 35.5146 31.3772 36.3414 31.3772 37.407H31.6986C31.6986 36.4002 31.9826 35.6727 32.5246 35.1938L32.3102 34.9573ZM31.3772 37.407C31.3772 38.6387 31.8271 39.6716 32.7247 40.4948L32.9433 40.2621C32.1128 39.5005 31.6986 38.5524 31.6986 37.407H31.3772ZM32.729 40.4986C33.6567 41.2884 34.8063 41.68 36.1666 41.68V41.3625C34.8732 41.3625 33.801 40.9922 32.9389 40.2582L32.729 40.4986ZM69.2747 22.5498L69.1286 22.4836L69.128 22.4849L69.2747 22.5498ZM72.1445 21.9098L72.2474 21.7879L72.1445 21.9098ZM72.5148 23.7841L72.3753 23.7054L72.3719 23.7113L72.369 23.7173L72.5148 23.7841ZM63.4888 42.9841L63.343 42.9173L63.3429 42.9176L63.4888 42.9841ZM62.6556 43.9441L62.7366 44.0813L62.7408 44.0789L62.7447 44.0762L62.6556 43.9441ZM60.295 43.9441L60.2058 44.0762L60.2098 44.0789L60.214 44.0813L60.295 43.9441ZM59.4155 42.9841L59.2696 43.0506L59.2717 43.0551L59.2739 43.0594L59.4155 42.9841ZM50.4358 23.7841L50.5817 23.7176L50.5787 23.7113L50.5753 23.7054L50.4358 23.7841ZM50.8524 21.9098L50.7531 21.7851L50.7508 21.7868L50.7486 21.7887L50.8524 21.9098ZM53.1205 21.6813L53.0313 21.8133L53.0345 21.8154L53.0377 21.8173L53.1205 21.6813ZM53.8148 22.4584L53.9615 22.3938L53.961 22.3927L53.8148 22.4584ZM61.5447 39.6013L61.3978 39.6659L61.5443 39.9906L61.6913 39.6662L61.5447 39.6013ZM69.4208 22.616C69.5814 22.27 69.7843 22.0209 70.0251 21.8579C70.2651 21.6954 70.5524 21.6114 70.8948 21.6114V21.294C70.4963 21.294 70.1436 21.3928 69.8433 21.596C69.5441 21.7987 69.3075 22.0982 69.1286 22.4836L69.4208 22.616ZM70.8948 21.6114C71.3184 21.6114 71.6988 21.7497 72.0416 22.0317L72.2474 21.7879C71.8494 21.4605 71.3968 21.294 70.8948 21.294V21.6114ZM72.0416 22.0317C72.3769 22.3078 72.5392 22.6449 72.5392 23.0527H72.8607C72.8607 22.5462 72.6525 22.1214 72.2474 21.7879L72.0416 22.0317ZM72.5392 23.0527C72.5392 23.3027 72.4831 23.5187 72.3753 23.7054L72.6543 23.8628C72.7932 23.6228 72.8607 23.3513 72.8607 23.0527H72.5392ZM72.369 23.7173L63.343 42.9173L63.6346 43.0509L72.6606 23.8509L72.369 23.7173ZM63.3429 42.9176C63.1703 43.287 62.9123 43.5844 62.5664 43.8121L62.7447 44.0762C63.1396 43.8162 63.437 43.4736 63.6347 43.0506L63.3429 42.9176ZM62.5746 43.807C62.2291 44.006 61.8559 44.1054 61.4522 44.1054V44.4229C61.9123 44.4229 62.3414 44.3089 62.7366 44.0813L62.5746 43.807ZM61.4522 44.1054C61.0814 44.1054 60.7235 44.0071 60.376 43.807L60.214 44.0813C60.6071 44.3078 61.0206 44.4229 61.4522 44.4229V44.1054ZM60.384 43.8121C60.0362 43.583 59.7609 43.2827 59.557 42.9089L59.2739 43.0594C59.5022 43.4779 59.813 43.8176 60.2058 44.0762L60.384 43.8121ZM59.5615 42.9176L50.5817 23.7176L50.2899 23.8506L59.2696 43.0506L59.5615 42.9176ZM50.5753 23.7054C50.4657 23.5159 50.4114 23.3144 50.4114 23.0984H50.0899C50.0899 23.37 50.159 23.6257 50.2963 23.8628L50.5753 23.7054ZM50.4114 23.0984C50.4114 22.6946 50.5856 22.3406 50.9562 22.0309L50.7486 21.7887C50.3167 22.1495 50.0899 22.5879 50.0899 23.0984H50.4114ZM50.9517 22.0346C51.3587 21.7187 51.7873 21.5657 52.241 21.5657V21.2482C51.7071 21.2482 51.21 21.4305 50.7531 21.7851L50.9517 22.0346ZM52.241 21.5657C52.5152 21.5657 52.7776 21.6463 53.0313 21.8133L53.2095 21.5492C52.9077 21.3505 52.5838 21.2482 52.241 21.2482V21.5657ZM53.0377 21.8173C53.3173 21.983 53.5271 22.217 53.6684 22.5241L53.961 22.3927C53.7937 22.0294 53.5407 21.7452 53.2031 21.5451L53.0377 21.8173ZM53.6679 22.523L61.3978 39.6659L61.6915 39.5367L53.9615 22.3938L53.6679 22.523ZM61.6913 39.6662L69.4213 22.6148L69.128 22.4849L61.398 39.5363L61.6913 39.6662ZM77.3134 43.8984L77.1998 44.0106L77.2049 44.0157L77.2105 44.0203L77.3134 43.8984ZM77.3134 21.9098L77.4216 22.0273L77.4221 22.0268L77.3134 21.9098ZM80.0444 21.9098L79.9307 22.0221L79.9335 22.0248L79.9364 22.0273L80.0444 21.9098ZM80.0444 43.8984L80.1525 44.0159L80.0444 43.8984ZM76.8968 15.967L77.0066 15.8509L76.8968 15.967ZM76.8968 12.6298L77.0066 12.7459L76.8968 12.6298ZM78.702 44.1968C78.1782 44.1968 77.7535 44.054 77.4163 43.7765L77.2105 44.0203C77.6141 44.3524 78.1151 44.5143 78.702 44.5143V44.1968ZM77.427 43.7862C77.1242 43.487 76.965 43.0738 76.965 42.527H76.6435C76.6435 43.1382 76.8239 43.6394 77.1998 44.0106L77.427 43.7862ZM76.965 42.527V23.2355H76.6435V42.527H76.965ZM76.965 23.2355C76.965 22.6879 77.1244 22.2941 77.4216 22.0273L77.2054 21.7924C76.8235 22.1351 76.6435 22.6251 76.6435 23.2355H76.965ZM77.4221 22.0268C77.7594 21.7214 78.1823 21.5657 78.702 21.5657V21.2482C78.1111 21.2482 77.608 21.4278 77.2049 21.7928L77.4221 22.0268ZM78.702 21.5657C79.2221 21.5657 79.6262 21.7213 79.9307 22.0221L80.158 21.7976C79.7837 21.4279 79.2928 21.2482 78.702 21.2482V21.5657ZM79.9364 22.0273C80.2334 22.2941 80.3928 22.6879 80.3928 23.2355H80.7142C80.7142 22.6251 80.5342 22.1351 80.1525 21.7924L79.9364 22.0273ZM80.3928 23.2355V42.527H80.7142V23.2355H80.3928ZM80.3928 42.527C80.3928 43.1079 80.2318 43.5157 79.9364 43.7809L80.1525 44.0159C80.5358 43.6716 80.7142 43.1651 80.7142 42.527H80.3928ZM79.9364 43.7809C79.6324 44.0538 79.2265 44.1968 78.702 44.1968V44.5143C79.2887 44.5143 79.7776 44.3525 80.1525 44.0159L79.9364 43.7809ZM78.702 16.4482C77.9949 16.4482 77.4346 16.2455 77.0066 15.8509L76.7872 16.083C77.2848 16.5417 77.9282 16.7657 78.702 16.7657V16.4482ZM77.0066 15.8509C76.5804 15.4581 76.3632 14.9384 76.3632 14.2755H76.0418C76.0418 15.0146 76.2877 15.6225 76.7872 16.083L77.0066 15.8509ZM76.3632 14.2755C76.3632 13.6455 76.5788 13.1402 77.0066 12.7459L76.7872 12.5138C76.2891 12.9728 76.0418 13.5646 76.0418 14.2755H76.3632ZM77.0066 12.7459C77.4346 12.3512 77.9949 12.1486 78.702 12.1486V11.8311C77.9282 11.8311 77.2848 12.0551 76.7872 12.5138L77.0066 12.7459ZM78.702 12.1486C79.4094 12.1486 79.9695 12.3512 80.3976 12.7459L80.617 12.5138C80.1193 12.0551 79.4761 11.8311 78.702 11.8311V12.1486ZM80.3976 12.7459C80.8253 13.1402 81.0408 13.6455 81.0408 14.2755H81.3623C81.3623 13.5646 81.1149 12.9728 80.617 12.5138L80.3976 12.7459ZM81.0408 14.2755C81.0408 14.9384 80.8239 15.4581 80.3976 15.8509L80.617 16.083C81.1165 15.6225 81.3623 15.0146 81.3623 14.2755H81.0408ZM80.3976 15.8509C79.9695 16.2455 79.4094 16.4482 78.702 16.4482V16.7657C79.4761 16.7657 80.1193 16.5417 80.617 16.083L80.3976 15.8509ZM107.049 12.1727L107.163 12.0605L107.049 12.1727ZM107.049 43.8527L107.163 43.9649L107.049 43.8527ZM104.272 43.8527L104.153 43.9595L104.156 43.9622L104.159 43.9649L104.272 43.8527ZM103.809 40.0584H103.97L103.664 39.99L103.809 40.0584ZM100.801 43.3041L100.72 43.1668L100.718 43.1678L100.801 43.3041ZM90.9877 42.9841L90.8998 43.117L90.9877 42.9841ZM87.4699 38.9155L87.3242 38.9825L87.3246 38.9835L87.4699 38.9155ZM87.4699 26.7555L87.3246 26.6876L87.4699 26.7555ZM90.9877 22.7327L90.9018 22.5986L90.9877 22.7327ZM100.801 22.4584L100.718 22.5948L100.72 22.5955L100.801 22.4584ZM103.809 25.7041L103.664 25.7725L103.97 25.7041H103.809ZM104.272 12.1727L104.159 12.0605L104.272 12.1727ZM102.004 39.1898L101.878 39.0909L101.878 39.0913L102.004 39.1898ZM102.004 26.6184L101.878 26.717L101.879 26.7186L102.004 26.6184ZM91.8209 26.6184L91.6973 26.5168L91.6962 26.5182L91.8209 26.6184ZM91.8209 39.1441L91.6941 39.2417L91.6952 39.2432L91.6964 39.2444L91.8209 39.1441ZM105.661 11.8286C106.214 11.8286 106.633 11.9858 106.936 12.2849L107.163 12.0605C106.787 11.6891 106.28 11.5111 105.661 11.5111V11.8286ZM106.936 12.2849C107.242 12.5875 107.398 12.9724 107.398 13.4527H107.719C107.719 12.8968 107.536 12.4284 107.163 12.0605L106.936 12.2849ZM107.398 13.4527V42.527H107.719V13.4527H107.398ZM107.398 42.527C107.398 43.0406 107.24 43.4397 106.936 43.7405L107.163 43.9649C107.537 43.5952 107.719 43.1105 107.719 42.527H107.398ZM106.936 43.7405C106.633 44.0395 106.214 44.1968 105.661 44.1968V44.5143C106.28 44.5143 106.787 44.3363 107.163 43.9649L106.936 43.7405ZM105.661 44.1968C105.107 44.1968 104.689 44.0395 104.386 43.7405L104.159 43.9649C104.534 44.3363 105.042 44.5143 105.661 44.5143V44.1968ZM104.391 43.7459C104.115 43.4459 103.97 43.0448 103.97 42.527H103.649C103.649 43.1063 103.812 43.589 104.153 43.9595L104.391 43.7459ZM103.97 42.527V40.0584H103.649V42.527H103.97ZM103.664 39.99C102.999 41.3638 102.018 42.4214 100.72 43.1668L100.881 43.4414C102.237 42.663 103.262 41.5568 103.954 40.1268L103.664 39.99ZM100.718 43.1678C99.4511 43.9127 97.953 44.2882 96.2182 44.2882V44.6057C98.0012 44.6057 99.558 44.2194 100.883 43.4405L100.718 43.1678ZM96.2182 44.2882C94.2714 44.2882 92.5591 43.8081 91.0757 42.8513L90.8998 43.117C92.4405 44.1106 94.215 44.6057 96.2182 44.6057V44.2882ZM91.0757 42.8513C89.5903 41.8932 88.4366 40.5605 87.6151 38.8476L87.3246 38.9835C88.1695 40.7449 89.3611 42.1246 90.8998 43.117L91.0757 42.8513ZM87.6155 38.8486C86.7939 37.1055 86.3809 35.0871 86.3809 32.7898H86.0594C86.0594 35.1249 86.4794 37.1903 87.3242 38.9825L87.6155 38.8486ZM86.3809 32.7898C86.3809 30.5232 86.7939 28.5357 87.6151 26.8235L87.3246 26.6876C86.4796 28.4497 86.0594 30.4851 86.0594 32.7898H86.3809ZM87.6151 26.8235C88.4365 25.1111 89.5895 23.7941 91.0736 22.8668L90.9018 22.5986C89.3618 23.5608 88.1697 24.9257 87.3246 26.6876L87.6151 26.8235ZM91.0736 22.8668C92.5573 21.9398 94.2704 21.4743 96.2182 21.4743V21.1568C94.2161 21.1568 92.4421 21.636 90.9018 22.5986L91.0736 22.8668ZM96.2182 21.4743C97.953 21.4743 99.4511 21.8498 100.718 22.5948L100.883 22.3221C99.558 21.5432 98.0012 21.1568 96.2182 21.1568V21.4743ZM100.72 22.5955C102.018 23.3411 102.999 24.3987 103.664 25.7725L103.954 25.6357C103.262 24.2057 102.237 23.0995 100.881 22.3211L100.72 22.5955ZM103.97 25.7041V13.4527H103.649V25.7041H103.97ZM103.97 13.4527C103.97 12.9342 104.115 12.5524 104.386 12.2849L104.159 12.0605C103.812 12.4025 103.649 12.8741 103.649 13.4527H103.97ZM104.386 12.2849C104.689 11.9858 105.107 11.8286 105.661 11.8286V11.5111C105.042 11.5111 104.534 11.6891 104.159 12.0605L104.386 12.2849ZM96.9588 41.5429C99.1899 41.5429 100.922 40.7955 102.13 39.2884L101.878 39.0913C100.741 40.5098 99.1094 41.2254 96.9588 41.2254V41.5429ZM102.13 39.2887C103.364 37.7576 103.97 35.6148 103.97 32.8813H103.649C103.649 35.5725 103.051 37.6354 101.878 39.0909L102.13 39.2887ZM103.97 32.8813C103.97 30.1481 103.364 28.0195 102.129 26.5182L101.879 26.7186C103.051 28.143 103.649 30.1897 103.649 32.8813H103.97ZM102.13 26.5198C100.922 25.0127 99.1899 24.2654 96.9588 24.2654V24.5828C99.1094 24.5828 100.741 25.2984 101.878 26.717L102.13 26.5198ZM96.9588 24.2654C94.7274 24.2654 92.9667 25.0125 91.6975 26.5168L91.9444 26.72C93.1438 25.2986 94.8082 24.5828 96.9588 24.5828V24.2654ZM91.6962 26.5182C90.4616 28.019 89.855 30.1165 89.855 32.7898H90.1764C90.1764 30.1603 90.7734 28.1435 91.9456 26.7186L91.6962 26.5182ZM89.855 32.7898C89.855 35.5236 90.4612 37.6808 91.6941 39.2417L91.9476 39.0465C90.7735 37.5598 90.1764 35.4808 90.1764 32.7898H89.855ZM91.6964 39.2444C92.9652 40.7795 94.7262 41.5429 96.9588 41.5429V41.2254C94.8095 41.2254 93.1452 40.4954 91.9453 39.0438L91.6964 39.2444ZM121.261 26.2527L121.4 26.3324L121.401 26.3311L121.261 26.2527ZM119.178 30.9613L119.024 30.9154L119.024 30.9173L119.178 30.9613ZM119.456 39.2813L119.319 39.3646L119.321 39.367L119.322 39.3694L119.456 39.2813ZM127.186 38.0013L127.311 38.1006L127.312 38.0997L127.186 38.0013ZM130.657 31.1898L130.504 31.1433L130.503 31.1444L130.657 31.1898ZM131.629 18.1613L131.616 18.003L131.449 18.0168L131.47 18.1809L131.629 18.1613ZM135.842 29.1327L136 29.1605L136 29.1603L135.842 29.1327ZM136.166 45.6355L136.133 45.7909L136.455 45.8565L136.31 45.5654L136.166 45.6355ZM131.907 43.1213L131.772 43.2079L131.774 43.2097L131.775 43.2114L131.907 43.1213ZM130.796 35.0298L130.956 35.0455L130.642 34.9865L130.796 35.0298ZM126.399 42.0241L126.503 42.1449L126.399 42.0241ZM115.336 42.4356L115.211 42.5348L115.212 42.5359L115.336 42.4356ZM114.966 28.3555L114.816 28.2975L114.816 28.2984L114.966 28.3555ZM119.502 21.727L119.393 21.6105L119.392 21.6113L119.502 21.727ZM129.87 19.5784L129.91 19.7322L130.441 19.5989L129.921 19.4278L129.87 19.5784ZM124.871 22.0927L124.973 22.2157L124.871 22.0927ZM121.122 26.173C120.221 27.707 119.522 29.2879 119.024 30.9154L119.332 31.0071C119.822 29.4041 120.511 27.846 121.4 26.3324L121.122 26.173ZM119.024 30.9173C118.557 32.5146 118.323 34.0532 118.323 35.5327H118.645C118.645 34.0865 118.873 32.5774 119.333 31.0052L119.024 30.9173ZM118.323 35.5327C118.323 37.019 118.652 38.2987 119.319 39.3646L119.593 39.1979C118.963 38.1914 118.645 36.9721 118.645 35.5327H118.323ZM119.322 39.3694C120.031 40.4197 121.038 40.9486 122.326 40.9486V40.6311C121.145 40.6311 120.238 40.1543 119.59 39.1932L119.322 39.3694ZM122.326 40.9486C124.12 40.9486 125.781 39.9816 127.311 38.1006L127.06 37.9019C125.566 39.739 123.988 40.6311 122.326 40.6311V40.9486ZM127.312 38.0997C128.838 36.1922 130.004 33.9032 130.811 31.2352L130.503 31.1444C129.706 33.7794 128.557 36.0313 127.06 37.9028L127.312 38.0997ZM130.811 31.2363C131.648 28.5428 132.068 26.0584 132.068 23.7841H131.746C131.746 26.0203 131.333 28.473 130.504 31.1433L130.811 31.2363ZM132.068 23.7841C132.068 21.4949 131.975 19.6135 131.789 18.1416L131.47 18.1809C131.654 19.6348 131.746 21.5019 131.746 23.7841H132.068ZM131.643 18.3195C132.386 18.2582 132.841 18.2286 133.018 18.2286V17.9111C132.825 17.9111 132.354 17.9424 131.616 18.003L131.643 18.3195ZM133.018 18.2286C134.304 18.2286 135.239 18.5533 135.854 19.1751C136.47 19.7975 136.792 20.7448 136.792 22.047H137.113C137.113 20.6978 136.779 19.6565 136.084 18.9532C135.387 18.2492 134.355 17.9111 133.018 17.9111V18.2286ZM136.792 22.047C136.792 22.3214 136.702 23.0427 136.516 24.2284C136.331 25.4078 136.053 27.0332 135.683 29.1051L136 29.1603C136.37 27.0875 136.648 25.4595 136.833 24.277C137.018 23.1008 137.113 22.3516 137.113 22.047H136.792ZM135.683 29.1049C134.942 33.2232 134.57 36.5401 134.57 39.0527H134.891C134.891 36.5671 135.26 33.2708 136 29.1605L135.683 29.1049ZM134.57 39.0527C134.57 41.5419 135.052 43.7606 136.021 45.7057L136.31 45.5654C135.365 43.6705 134.891 41.5006 134.891 39.0527H134.57ZM136.198 45.4802C134.283 45.0898 132.905 44.2694 132.039 43.0311L131.775 43.2114C132.699 44.5332 134.159 45.3889 136.133 45.7909L136.198 45.4802ZM132.042 43.0346C131.202 41.7606 130.772 39.9216 130.772 37.4984H130.45C130.45 39.9514 130.884 41.8609 131.772 43.2079L132.042 43.0346ZM130.772 37.4984C130.772 37.0809 130.833 36.2657 130.956 35.0455L130.636 35.014C130.513 36.2321 130.45 37.0625 130.45 37.4984H130.772ZM130.642 34.9865C129.816 37.8549 128.366 40.1582 126.295 41.9033L126.503 42.1449C128.628 40.3548 130.11 37.9952 130.951 35.0732L130.642 34.9865ZM126.295 41.9033C124.215 43.6552 122.183 44.5168 120.196 44.5168V44.8343C122.283 44.8343 124.386 43.9282 126.503 42.1449L126.295 41.9033ZM120.196 44.5168C118.237 44.5168 116.664 43.7905 115.461 42.3352L115.212 42.5359C116.478 44.0673 118.144 44.8343 120.196 44.8343V44.5168ZM115.462 42.3363C114.257 40.8494 113.646 38.8009 113.646 36.1727H113.324C113.324 38.8473 113.947 40.9741 115.211 42.5348L115.462 42.3363ZM113.646 36.1727C113.646 33.5105 114.136 30.9241 115.116 28.4127L114.816 28.2984C113.821 30.846 113.324 33.4711 113.324 36.1727H113.646ZM115.116 28.4136C116.125 25.8752 117.624 23.6854 119.612 21.8427L119.392 21.6113C117.369 23.4867 115.843 25.7159 114.816 28.2975L115.116 28.4136ZM119.611 21.8435C121.622 20.0084 123.852 19.0971 126.306 19.0971V18.7797C123.762 18.7797 121.456 19.7275 119.393 21.6105L119.611 21.8435ZM126.306 19.0971C127.365 19.0971 128.536 19.3063 129.82 19.729L129.921 19.4278C128.613 18.9971 127.407 18.7797 126.306 18.7797V19.0971ZM129.831 19.4246C127.987 19.8876 126.299 20.7367 124.77 21.9697L124.973 22.2157C126.468 21.0106 128.113 20.1835 129.91 19.7322L129.831 19.4246ZM124.77 21.9697C123.244 23.2001 122.027 24.6016 121.121 26.1743L121.401 26.3311C122.285 24.7952 123.475 23.4233 124.973 22.2157L124.77 21.9697ZM148.791 39.1441L148.654 39.2268L148.791 39.1441ZM155.873 38.9155L155.755 38.8076L155.873 38.9155ZM158.743 33.7955L158.591 33.7448L158.59 33.746L158.743 33.7955ZM160.641 26.9384L160.484 26.9035L160.484 26.9051L160.641 26.9384ZM161.844 19.167L161.683 19.1528L161.844 19.167ZM162.169 0.378404L162.217 0.227242L161.966 0.147858L162.01 0.404497L162.169 0.378404ZM165.362 22.9155L165.203 22.8908V22.8914L165.362 22.9155ZM164.252 44.9498L164.2 45.1005L164.443 45.1805L164.411 44.9294L164.252 44.9498ZM160.641 41.8413L160.493 41.9038L160.641 41.8413ZM159.669 36.127H159.829L159.517 36.0732L159.669 36.127ZM155.41 42.3441L155.308 42.2214L155.41 42.3441ZM144.625 42.3441L144.499 42.4421L144.5 42.4435L144.501 42.4448L144.625 42.3441ZM146.708 23.2813L146.584 23.1806L146.583 23.1814L146.708 23.2813ZM160.131 18.9841L160.157 19.1408L160.173 18.8308L160.131 18.9841ZM154.484 21.2698L154.577 21.3997L154.579 21.3986L154.484 21.2698ZM150.596 25.3841L150.457 25.3048V25.3049L150.596 25.3841ZM147.612 34.8927C147.612 36.6492 147.955 38.0976 148.654 39.2268L148.928 39.0614C148.269 37.9963 147.933 36.6105 147.933 34.8927H147.612ZM148.654 39.2268C149.365 40.3762 150.469 40.9486 151.939 40.9486V40.6311C150.569 40.6311 149.575 40.1063 148.928 39.0614L148.654 39.2268ZM151.939 40.9486C153.442 40.9486 154.794 40.2987 155.991 39.0235L155.755 38.8076C154.607 40.0314 153.336 40.6311 151.939 40.6311V40.9486ZM155.991 39.0235C157.214 37.7227 158.181 35.9941 158.895 33.8451L158.59 33.746C157.886 35.8636 156.939 37.5484 155.755 38.8076L155.991 39.0235ZM158.895 33.8463C159.638 31.6765 160.272 29.3849 160.798 26.9717L160.484 26.9051C159.96 29.3071 159.329 31.587 158.591 33.7448L158.895 33.8463ZM160.798 26.9733C161.354 24.5276 161.757 21.9302 162.005 19.1811L161.683 19.1528C161.437 21.8895 161.037 24.473 160.484 26.9035L160.798 26.9733ZM162.005 19.1811C162.468 14.0897 162.699 10.0463 162.699 7.05269H162.378C162.378 10.0325 162.146 14.0652 161.683 19.1528L162.005 19.1811ZM162.699 7.05269C162.699 4.06418 162.575 1.82864 162.326 0.352309L162.01 0.404497C162.254 1.85388 162.378 4.06786 162.378 7.05269H162.699ZM162.119 0.529564C165.193 1.50236 166.775 4.55834 166.775 9.84126H167.096C167.096 4.51847 165.499 1.26587 162.217 0.227242L162.119 0.529564ZM166.775 9.84126C166.775 11.9905 166.253 16.336 165.203 22.8908L165.521 22.9403C166.569 16.3903 167.096 12.0197 167.096 9.84126H166.775ZM165.203 22.8914C164.184 29.4448 163.673 34.2397 163.673 37.2698H163.994C163.994 34.2657 164.502 29.4911 165.521 22.9397L165.203 22.8914ZM163.673 37.2698C163.673 40.2913 163.813 42.8586 164.091 44.9703L164.411 44.9294C164.134 42.8354 163.994 40.2827 163.994 37.2698H163.673ZM164.301 44.7992C162.58 44.2325 161.416 43.2249 160.788 41.7787L160.493 41.9038C161.161 43.4443 162.403 44.509 164.2 45.1005L164.301 44.7992ZM160.788 41.7787C160.152 40.3117 159.829 38.4302 159.829 36.127H159.508C159.508 38.4562 159.833 40.3841 160.493 41.9038L160.788 41.7787ZM159.517 36.0732C158.569 38.6714 157.165 40.7184 155.308 42.2214L155.512 42.4668C157.42 40.9222 158.855 38.8244 159.82 36.1808L159.517 36.0732ZM155.308 42.2214C153.449 43.7267 151.524 44.4711 149.532 44.4711V44.7886C151.612 44.7886 153.607 44.0092 155.512 42.4668L155.308 42.2214ZM149.532 44.4711C147.574 44.4711 145.984 43.7303 144.75 42.2435L144.501 42.4448C145.797 44.0056 147.478 44.7886 149.532 44.7886V44.4711ZM144.752 42.2462C143.548 40.7309 142.934 38.5011 142.934 35.5327H142.613C142.613 38.5376 143.233 40.8487 144.499 42.4421L144.752 42.2462ZM142.934 35.5327C142.934 30.5936 144.238 26.5473 146.833 23.3811L146.583 23.1814C143.933 26.4152 142.613 30.5365 142.613 35.5327H142.934ZM146.832 23.3819C149.458 20.2157 152.7 18.64 156.567 18.64V18.3225C152.597 18.3225 149.266 19.9468 146.584 23.1806L146.832 23.3819ZM156.567 18.64C157.662 18.64 158.836 18.8052 160.09 19.1375L160.173 18.8308C158.897 18.4925 157.695 18.3225 156.567 18.3225V18.64ZM160.106 18.8275C157.984 19.1665 156.078 19.9376 154.39 21.1411L154.579 21.3986C156.224 20.2249 158.083 19.4722 160.157 19.1408L160.106 18.8275ZM154.392 21.14C152.708 22.31 151.396 23.6981 150.457 25.3048L150.735 25.4635C151.648 23.9006 152.928 22.5459 154.577 21.3997L154.392 21.14ZM150.457 25.3049C148.563 28.5548 147.612 31.7513 147.612 34.8927H147.933C147.933 31.817 148.864 28.6744 150.736 25.4633L150.457 25.3049ZM179.628 23.2813L179.491 23.1987L179.489 23.2001L179.628 23.2813ZM177.082 30.687L176.923 30.6633L176.895 30.8457H177.082V30.687ZM182.636 30.0013L182.578 29.8532L182.636 30.0013ZM185.414 28.2184L185.536 28.323V28.3225L185.414 28.2184ZM186.526 21.0413L186.397 21.1365V21.1384L186.399 21.1405L186.526 21.0413ZM190.876 38.6413L191.013 38.7243L191.037 38.686V38.6413H190.876ZM174.444 41.887L174.321 41.9894L174.444 41.887ZM175.23 22.8698L175.099 22.7787V22.7803L175.23 22.8698ZM179.443 19.167L179.366 19.0275V19.0281L179.443 19.167ZM189.025 30.6413L189.12 30.7694V30.7692L189.025 30.6413ZM176.897 32.3784L176.934 32.2238L176.756 32.1827L176.738 32.3625L176.897 32.3784ZM189.163 37.407L189.184 37.2497L189.083 37.236L189.028 37.3221L189.163 37.407ZM184.35 19.9682C182.423 19.9682 180.804 21.067 179.491 23.1987L179.766 23.3638C181.044 21.2898 182.574 20.2857 184.35 20.2857V19.9682ZM179.489 23.2001C178.212 25.3235 177.358 27.8122 176.923 30.6633L177.241 30.7106C177.67 27.8932 178.514 25.4448 179.766 23.3624L179.489 23.2001ZM177.082 30.8457H178.379V30.5282H177.082V30.8457ZM178.379 30.8457C180.028 30.8457 181.468 30.6151 182.694 30.1494L182.578 29.8532C181.399 30.3017 179.999 30.5282 178.379 30.5282V30.8457ZM182.694 30.1494C183.916 29.6859 184.865 29.0789 185.536 28.3228L185.293 28.1138C184.666 28.8208 183.766 29.4024 182.578 29.8532L182.694 30.1494ZM185.536 28.3225C186.794 26.8933 187.426 25.2721 187.426 23.4641H187.104C187.104 25.1914 186.503 26.7397 185.293 28.1143L185.536 28.3225ZM187.426 23.4641C187.426 22.4328 187.173 21.587 186.651 20.9421L186.399 21.1405C186.865 21.7146 187.104 22.484 187.104 23.4641H187.426ZM186.654 20.946C186.151 20.2857 185.372 19.9682 184.35 19.9682V20.2857C185.303 20.2857 185.973 20.5778 186.397 21.1365L186.654 20.946ZM190.738 38.5582C189.329 40.8294 187.789 42.4052 186.124 43.3019L186.278 43.5806C188.008 42.6487 189.584 41.0246 191.013 38.7243L190.738 38.5582ZM186.124 43.3019C184.454 44.2016 182.506 44.654 180.277 44.654V44.9714C182.551 44.9714 184.554 44.5095 186.278 43.5806L186.124 43.3019ZM180.277 44.654C178.11 44.654 176.208 43.7059 174.567 41.7846L174.321 41.9894C176.013 43.969 178 44.9714 180.277 44.9714V44.654ZM174.567 41.7846C172.934 39.8721 172.106 37.1705 172.106 33.6584H171.784C171.784 37.2168 172.622 40.0009 174.321 41.9894L174.567 41.7846ZM172.106 33.6584C172.106 29.6659 173.192 26.1011 175.364 22.9594L175.099 22.7803C172.889 25.9776 171.784 29.6052 171.784 33.6584H172.106ZM175.362 22.9608C176.428 21.4578 177.813 20.2395 179.522 19.3059L179.366 19.0281C177.617 19.984 176.195 21.2343 175.099 22.7789L175.362 22.9608ZM179.52 19.3063C181.254 18.3749 183.155 17.9086 185.229 17.9086V17.5911C183.106 17.5911 181.15 18.0695 179.366 19.0276L179.52 19.3063ZM185.229 17.9086C187.521 17.9086 189.208 18.4554 190.325 19.5211C191.44 20.5859 192.011 22.1948 192.011 24.3784H192.332C192.332 22.143 191.747 20.4376 190.548 19.2928C189.35 18.149 187.567 17.5911 185.229 17.5911V17.9086ZM192.011 24.3784C192.011 26.9811 190.986 29.0206 188.928 30.5133L189.12 30.7692C191.26 29.2143 192.332 27.0786 192.332 24.3784H192.011ZM188.93 30.5132C186.892 31.9851 184.518 32.7225 181.804 32.7225V33.04C184.581 33.04 187.022 32.2841 189.12 30.7694L188.93 30.5132ZM181.804 32.7225C179.992 32.7225 178.369 32.5557 176.934 32.2238L176.86 32.533C178.326 32.8716 179.973 33.04 181.804 33.04V32.7225ZM176.738 32.3625C176.706 32.6757 176.69 33.1546 176.69 33.7955H177.011C177.011 33.1565 177.027 32.6906 177.058 32.3943L176.738 32.3625ZM176.69 33.7955C176.69 36.5032 177.096 38.5602 177.927 39.9451C178.768 41.343 180.036 42.0457 181.711 42.0457V41.7282C180.147 41.7282 178.985 41.0824 178.204 39.7832C177.416 38.4709 177.011 36.4822 177.011 33.7955H176.69ZM181.711 42.0457C184.832 42.0457 187.363 40.5152 189.3 37.4919L189.028 37.3221C187.138 40.2721 184.7 41.7282 181.711 41.7282V42.0457ZM189.142 37.5643C189.702 37.6389 190.098 37.7748 190.352 37.9581C190.598 38.1354 190.716 38.359 190.716 38.6413H191.037C191.037 38.253 190.867 37.9357 190.542 37.7016C190.225 37.4735 189.767 37.3275 189.184 37.2497L189.142 37.5643ZM213.88 22.7327L213.74 22.81V22.8121L213.742 22.8138L213.88 22.7327ZM206.428 22.8241L206.538 22.9389L206.54 22.9376L206.428 22.8241ZM203.049 27.8527L202.9 27.7925V27.7938L203.049 27.8527ZM203.096 39.647L202.953 39.7201V39.7213L203.096 39.647ZM212.77 37.7727L212.911 37.8473L212.77 37.7727ZM201.614 27.3498L201.455 27.324L201.765 27.4025L201.614 27.3498ZM206.336 20.1727L206.432 20.2987L206.434 20.2986L206.336 20.1727ZM217.537 20.5841L217.408 20.679L217.41 20.68L217.537 20.5841ZM217.63 37.1327L217.776 37.1981V37.1975L217.63 37.1327ZM211.334 43.7613L211.267 43.6171V43.6176L211.265 43.6181L211.334 43.7613ZM199.856 41.7498L199.735 41.8559L199.737 41.8567L199.856 41.7498ZM199.531 22.9613L199.393 22.8809L199.531 22.9613ZM206.336 17.1098V16.9511H206.305L206.278 16.9617L206.336 17.1098ZM207.262 18.0241L207.35 18.1568L207.422 18.1098V18.0241H207.262ZM215.198 29.1327C215.198 26.1409 214.814 23.9705 214.018 22.6516L213.742 22.8138C214.491 24.0549 214.877 26.1511 214.877 29.1327H215.198ZM214.02 22.6554C213.253 21.299 212.123 20.6082 210.64 20.6082V20.9257C211.997 20.9257 213.025 21.5454 213.74 22.81L214.02 22.6554ZM210.64 20.6082C209.194 20.6082 207.752 21.3227 206.315 22.7106L206.54 22.9376C207.943 21.5827 209.309 20.9257 210.64 20.9257V20.6082ZM206.317 22.7094C204.88 24.0675 203.74 25.763 202.9 27.7925L203.197 27.9128C204.023 25.9195 205.137 24.2627 206.538 22.9389L206.317 22.7094ZM202.9 27.7938C202.09 29.7936 201.685 31.8862 201.685 34.0698H202.006C202.006 31.9259 202.403 29.8736 203.199 27.9116L202.9 27.7938ZM201.685 34.0698C201.685 36.2236 202.106 38.1087 202.953 39.7201L203.237 39.5738C202.419 38.0157 202.006 36.1827 202.006 34.0698H201.685ZM202.953 39.7213C203.38 40.5184 203.924 41.1243 204.584 41.5303C205.246 41.9367 206.016 42.1371 206.89 42.1371V41.8197C206.068 41.8197 205.357 41.6316 204.754 41.2608C204.15 40.8897 203.644 40.3298 203.237 39.5727L202.953 39.7213ZM206.89 42.1371C209.377 42.1371 211.383 40.6828 212.911 37.8473L212.628 37.6981C211.132 40.4701 209.218 41.8197 206.89 41.8197V42.1371ZM212.911 37.8473C214.435 35.0222 215.198 32.1168 215.198 29.1327H214.877C214.877 32.0609 214.128 34.9155 212.628 37.6981L212.911 37.8473ZM201.765 27.4025C202.932 24.1286 204.491 21.767 206.432 20.2987L206.238 20.0467C204.229 21.5651 202.641 23.9882 201.463 27.2971L201.765 27.4025ZM206.434 20.2986C208.417 18.7908 210.405 18.0457 212.398 18.0457V17.7282C210.319 17.7282 208.265 18.507 206.238 20.0468L206.434 20.2986ZM212.398 18.0457C214.411 18.0457 216.077 18.9165 217.408 20.679L217.665 20.4892C216.281 18.6555 214.523 17.7282 212.398 17.7282V18.0457ZM217.41 20.68C218.739 22.4114 219.412 24.7813 219.412 27.807H219.734C219.734 24.7375 219.05 22.2921 217.665 20.4882L217.41 20.68ZM219.412 27.807C219.412 31.1386 218.769 34.2249 217.483 37.0679L217.776 37.1975C219.083 34.3109 219.734 31.1802 219.734 27.807H219.412ZM217.483 37.0673C216.047 40.2081 213.973 42.3862 211.267 43.6171L211.402 43.9054C214.189 42.6373 216.312 40.3963 217.776 37.1981L217.483 37.0673ZM211.265 43.6181C209.808 44.3079 208.195 44.654 206.428 44.654V44.9714C208.239 44.9714 209.899 44.6165 211.403 43.9044L211.265 43.6181ZM206.428 44.654C203.98 44.654 201.829 43.6562 199.975 41.643L199.737 41.8567C201.645 43.9273 203.877 44.9714 206.428 44.9714V44.654ZM199.975 41.6438C198.128 39.6098 197.193 36.7119 197.193 32.927H196.871C196.871 36.7611 197.818 39.7451 199.735 41.8559L199.975 41.6438ZM197.193 32.927C197.193 29.11 198.02 25.817 199.669 23.0416L199.393 22.8809C197.71 25.7132 196.871 29.0638 196.871 32.927H197.193ZM199.669 23.0416C201.32 20.2663 203.56 18.3411 206.394 17.2579L206.278 16.9617C203.371 18.0728 201.076 20.0486 199.393 22.8809L199.669 23.0416ZM206.336 17.2686C206.619 17.2686 206.802 17.3386 206.916 17.4506C207.03 17.5627 207.101 17.7438 207.101 18.0241H207.422C207.422 17.6949 207.339 17.4189 207.143 17.2262C206.948 17.0335 206.669 16.9511 206.336 16.9511V17.2686ZM207.173 17.8914C204.073 19.9013 202.172 23.053 201.455 27.324L201.773 27.3757C202.477 23.1743 204.34 20.1089 207.35 18.1568L207.173 17.8914ZM240.103 31.5555L239.965 31.4759L240.103 31.5555ZM236.124 38.7784L236.265 38.8514L236.267 38.8508L236.124 38.7784ZM232.744 47.0984L232.59 47.0524V47.0529L232.744 47.0984ZM231.68 59.7613L231.643 59.9159L231.879 59.9705L231.837 59.7346L231.68 59.7613ZM227.652 57.7041L227.525 57.8V57.8006L227.652 57.7041ZM229.875 44.6298L230.021 44.6935L230.044 44.6444L230.031 44.5925L229.875 44.6298ZM228.162 35.7613L228.003 35.7871V35.7873L228.162 35.7613ZM226.079 25.2013L225.921 25.236L225.923 25.2375L226.079 25.2013ZM223.718 18.527L223.628 18.396L223.502 18.4806L223.581 18.609L223.718 18.527ZM230.013 19.807L229.862 19.8597V19.8605L230.013 19.807ZM231.54 29.1327L231.381 29.1473V29.1484L231.54 29.1327ZM232.929 39.2813L232.773 39.3141L232.863 39.7419L233.072 39.3557L232.929 39.2813ZM242.001 16.7441L242.091 16.6127L241.841 16.4449V16.7441H242.001ZM244.711 20.9041C244.711 21.9333 244.261 23.3843 243.338 25.2692L243.628 25.4076C244.555 23.5133 245.032 22.0082 245.032 20.9041H244.711ZM243.338 25.2692C242.414 27.1544 241.291 29.2232 239.965 31.4759L240.243 31.6352C241.571 29.3775 242.699 27.3014 243.628 25.4076L243.338 25.2692ZM239.965 31.4759C238.636 33.7336 237.308 36.1438 235.981 38.706L236.267 38.8508C237.591 36.293 238.917 33.8879 240.243 31.6352L239.965 31.4759ZM235.981 38.7054C234.648 41.2444 233.518 44.0268 232.59 47.0524L232.898 47.1444C233.821 44.1357 234.944 41.3714 236.265 38.8514L235.981 38.7054ZM232.59 47.0529C231.661 50.113 231.194 53.039 231.194 55.8298H231.516C231.516 53.074 231.976 50.179 232.898 47.144L232.59 47.0529ZM231.194 55.8298C231.194 57.2095 231.304 58.5289 231.521 59.7879L231.837 59.7346C231.624 58.4946 231.516 57.193 231.516 55.8298H231.194ZM231.717 59.6067C229.753 59.1524 228.456 58.4779 227.781 57.6076L227.525 57.8006C228.269 58.7589 229.656 59.4559 231.643 59.9159L231.717 59.6067ZM227.781 57.6082C227.125 56.7548 226.796 55.7379 226.796 54.5498H226.474C226.474 55.7998 226.823 56.8859 227.525 57.8L227.781 57.6082ZM226.796 54.5498C226.796 53.7071 227.058 52.4657 227.598 50.8157C228.134 49.1694 228.943 47.1289 230.021 44.6935L229.727 44.5662C228.645 47.007 227.834 49.0579 227.291 50.7182C226.751 52.3749 226.474 53.6554 226.474 54.5498H226.796ZM230.031 44.5925C229.57 42.7089 228.999 39.7575 228.321 35.7352L228.003 35.7873C228.682 39.8108 229.255 42.7717 229.717 44.6671L230.031 44.5925ZM228.321 35.7354C227.641 31.6797 226.947 28.156 226.235 25.1651L225.923 25.2375C226.632 28.2198 227.324 31.7362 228.003 35.7871L228.321 35.7354ZM226.236 25.1665C225.555 22.1741 224.764 19.9297 223.856 18.4449L223.581 18.609C224.462 20.05 225.245 22.2551 225.921 25.236L226.236 25.1665ZM223.809 18.6579C224.971 17.8722 225.942 17.4971 226.726 17.4971V17.1797C225.846 17.1797 224.809 17.5968 223.628 18.396L223.809 18.6579ZM226.726 17.4971C227.5 17.4971 228.139 17.6948 228.655 18.0819C229.171 18.4698 229.576 19.0578 229.862 19.8597L230.164 19.7543C229.864 18.9105 229.428 18.2641 228.85 17.8292C228.269 17.3935 227.557 17.1797 226.726 17.1797V17.4971ZM229.862 19.8605C230.441 21.4543 230.949 24.5436 231.381 29.1473L231.701 29.1181C231.268 24.5179 230.759 21.3902 230.164 19.7535L229.862 19.8605ZM231.381 29.1484C231.844 33.7513 232.307 37.1413 232.773 39.3141L233.086 39.2484C232.625 37.0936 232.164 33.7179 231.701 29.117L231.381 29.1484ZM233.072 39.3557C236.096 33.7303 238.367 29.0351 239.883 25.2713C241.395 21.5128 242.162 18.666 242.162 16.7441H241.841C241.841 18.6013 241.095 21.4001 239.584 25.1541C238.075 28.9027 235.81 33.5865 232.787 39.2068L233.072 39.3557ZM241.911 16.8755C243.805 18.1424 244.711 19.4871 244.711 20.9041H245.032C245.032 19.3344 244.025 17.9059 242.091 16.6127L241.911 16.8755ZM255.794 23.2813L255.658 23.1987L255.656 23.2001L255.794 23.2813ZM253.248 30.687L253.089 30.6633L253.062 30.8457H253.248V30.687ZM258.803 30.0013L258.745 29.8532L258.803 30.0013ZM261.58 28.2184L261.701 28.323V28.3225L261.58 28.2184ZM262.691 21.0413L262.562 21.1365L262.564 21.1384L262.565 21.1405L262.691 21.0413ZM267.041 38.6413L267.18 38.7243L267.202 38.686V38.6413H267.041ZM250.609 41.887L250.487 41.9894L250.609 41.887ZM251.397 22.8698L251.265 22.7787L251.264 22.7803L251.397 22.8698ZM255.609 19.167L255.532 19.0275L255.531 19.0281L255.609 19.167ZM265.19 30.6413L265.285 30.7694L265.286 30.7692L265.19 30.6413ZM253.064 32.3784L253.101 32.2238L252.922 32.1827L252.903 32.3625L253.064 32.3784ZM265.33 37.407L265.351 37.2497L265.249 37.236L265.193 37.3221L265.33 37.407ZM260.516 19.9682C258.589 19.9682 256.971 21.067 255.658 23.1987L255.931 23.3638C257.21 21.2898 258.739 20.2857 260.516 20.2857V19.9682ZM255.656 23.2001C254.378 25.3235 253.523 27.8122 253.089 30.6633L253.408 30.7106C253.837 27.8932 254.679 25.4448 255.932 23.3624L255.656 23.2001ZM253.248 30.8457H254.544V30.5282H253.248V30.8457ZM254.544 30.8457C256.194 30.8457 257.634 30.6151 258.861 30.1494L258.745 29.8532C257.564 30.3017 256.165 30.5282 254.544 30.5282V30.8457ZM258.861 30.1494C260.081 29.6859 261.03 29.0789 261.701 28.3228L261.46 28.1138C260.833 28.8208 259.931 29.4024 258.745 29.8532L258.861 30.1494ZM261.701 28.3225C262.959 26.8933 263.592 25.2721 263.592 23.4641H263.271C263.271 25.1914 262.67 26.7397 261.458 28.1143L261.701 28.3225ZM263.592 23.4641C263.592 22.4328 263.338 21.587 262.816 20.9421L262.565 21.1405C263.03 21.7146 263.271 22.484 263.271 23.4641H263.592ZM262.819 20.946C262.318 20.2857 261.538 19.9682 260.516 19.9682V20.2857C261.468 20.2857 262.138 20.5778 262.562 21.1365L262.819 20.946ZM266.905 38.5582C265.495 40.8294 263.954 42.4052 262.29 43.3019L262.443 43.5806C264.174 42.6487 265.751 41.0246 267.18 38.7243L266.905 38.5582ZM262.29 43.3019C260.621 44.2016 258.673 44.654 256.442 44.654V44.9714C258.718 44.9714 260.719 44.5095 262.443 43.5806L262.29 43.3019ZM256.442 44.654C254.275 44.654 252.374 43.7059 250.733 41.7846L250.487 41.9894C252.178 43.969 254.164 44.9714 256.442 44.9714V44.654ZM250.733 41.7846C249.099 39.8721 248.271 37.1705 248.271 33.6584H247.949C247.949 37.2168 248.788 40.0009 250.487 41.9894L250.733 41.7846ZM248.271 33.6584C248.271 29.6659 249.357 26.1011 251.53 22.9594L251.264 22.7803C249.054 25.9776 247.949 29.6052 247.949 33.6584H248.271ZM251.529 22.9608C252.594 21.4578 253.98 20.2395 255.687 19.3059L255.531 19.0281C253.782 19.984 252.36 21.2343 251.265 22.7789L251.529 22.9608ZM255.687 19.3063C257.421 18.3749 259.322 17.9086 261.395 17.9086V17.5911C259.271 17.5911 257.316 18.0695 255.532 19.0276L255.687 19.3063ZM261.395 17.9086C263.686 17.9086 265.375 18.4554 266.49 19.5211C267.605 20.5859 268.178 22.1948 268.178 24.3784H268.499C268.499 22.143 267.912 20.4376 266.713 19.2928C265.516 18.149 263.732 17.5911 261.395 17.5911V17.9086ZM268.178 24.3784C268.178 26.9811 267.151 29.0206 265.095 30.5133L265.286 30.7692C267.427 29.2143 268.499 27.0786 268.499 24.3784H268.178ZM265.095 30.5132C263.057 31.9851 260.685 32.7225 257.97 32.7225V33.04C260.748 33.04 263.189 32.2841 265.285 30.7694L265.095 30.5132ZM257.97 32.7225C256.159 32.7225 254.536 32.5557 253.101 32.2238L253.027 32.533C254.491 32.8716 256.14 33.04 257.97 33.04V32.7225ZM252.903 32.3625C252.871 32.6757 252.856 33.1546 252.856 33.7955H253.178C253.178 33.1565 253.194 32.6906 253.223 32.3943L252.903 32.3625ZM252.856 33.7955C252.856 36.5032 253.261 38.5602 254.094 39.9451C254.933 41.343 256.202 42.0457 257.877 42.0457V41.7282C256.312 41.7282 255.15 41.0824 254.37 39.7832C253.583 38.4709 253.178 36.4822 253.178 33.7955H252.856ZM257.877 42.0457C260.997 42.0457 263.528 40.5152 265.465 37.4919L265.193 37.3221C263.303 40.2721 260.867 41.7282 257.877 41.7282V42.0457ZM265.307 37.5643C265.866 37.6389 266.265 37.7748 266.519 37.9581C266.765 38.1354 266.881 38.359 266.881 38.6413H267.202C267.202 38.253 267.033 37.9357 266.709 37.7016C266.392 37.4735 265.934 37.3275 265.351 37.2497L265.307 37.5643Z" fill="black"/>
</g>
<defs>
<clipPath id="clip0">
<rect width="268.562" height="60" fill="white"/>
</clipPath>
</defs>
</svg>
