<svg width="30" height="30" viewBox="0 0 30 30" fill="none" xmlns="http://www.w3.org/2000/svg">
<g clip-path="url(#clip0)">
<path d="M30 6.03307C28.1129 6.12005 28.1541 6.11295 27.9407 6.13081L29.0584 2.93905C29.0584 2.93905 25.5698 4.22239 24.6854 4.45196C22.3627 2.36433 18.9102 2.27209 16.442 3.78912C14.4207 5.03172 13.3358 7.16558 13.6977 9.65971C9.76387 9.11382 6.44943 7.24912 3.83263 4.10566L3.00499 3.11163L2.38655 4.24734C1.60492 5.68243 1.34537 7.32328 1.6555 8.86755C1.78276 9.50109 1.99905 10.1053 2.29866 10.6711L1.58867 10.396L1.50444 11.5823C1.41907 12.7874 1.8203 14.1941 2.5779 15.3449C2.79121 15.669 3.06587 16.0249 3.414 16.376L3.0471 16.3197L3.4948 17.679C4.08325 19.465 5.30548 20.8468 6.89163 21.6149C5.30754 22.2871 4.02786 22.716 1.92444 23.408L0 24.0406L1.7775 25.0124C2.45522 25.383 4.85001 26.6205 7.21619 26.9918C12.4759 27.8167 18.3977 27.1449 22.3844 23.5544C25.7423 20.5302 26.8442 16.2284 26.6153 11.7517C26.5807 11.074 26.7664 10.4271 27.1381 9.9307C27.8826 8.93667 29.9954 6.03971 30 6.03307V6.03307ZM25.7325 8.87785C25.1152 9.70205 24.806 10.7547 24.8614 11.8414C25.0923 16.357 23.8637 19.8589 21.2093 22.2494C18.1087 25.0419 13.1074 26.1381 7.48833 25.2566C6.47072 25.0971 5.41901 24.7398 4.54857 24.383C6.3121 23.7762 7.67395 23.2354 9.87327 22.1944L12.9435 20.7412L9.55376 20.5243C7.93007 20.4204 6.57806 19.6335 5.74699 18.3558C6.18828 18.3302 6.61377 18.2588 7.03743 18.1407L10.2704 17.2403L7.01042 16.4419C5.42633 16.054 4.52339 15.1062 4.0448 14.3793C3.73054 13.9016 3.52524 13.4122 3.4021 12.9611C3.72894 13.0488 4.11003 13.1112 4.72458 13.1721L7.74193 13.4706L5.35126 11.6057C3.62869 10.2621 2.93838 8.24362 3.44444 6.30315C8.82042 11.8792 15.1325 11.4601 15.7679 11.6075C15.628 10.2491 15.6244 10.2459 15.5878 10.1166C14.7741 7.2402 16.5573 5.7797 17.3616 5.28532C19.0416 4.25283 21.7083 4.09719 23.5554 5.79824C23.9543 6.16537 24.4938 6.30979 24.9987 6.18437C25.4519 6.07176 25.8238 5.95251 26.188 5.82273L25.4299 7.9875L26.3976 7.98818C26.215 8.23309 25.9959 8.52628 25.7325 8.87785Z" fill="white"/>
</g>
<defs>
<clipPath id="clip0">
<rect width="30" height="30" fill="white"/>
</clipPath>
</defs>
</svg>
